<mxfile host="app.diagrams.net" agent="Mozilla/5.0 (Windows NT 10.0; Win64; x64) AppleWebKit/537.36 (KHTML, like Gecko) Chrome/130.0.0.0 Safari/537.36 Edg/130.0.0.0" version="24.8.1">
  <diagram id="C5RBs43oDa-KdzZeNtuy" name="Page-1">
    <mxGraphModel dx="1965" dy="1138" grid="0" gridSize="10" guides="1" tooltips="1" connect="1" arrows="1" fold="1" page="1" pageScale="1" pageWidth="827" pageHeight="1169" math="0" shadow="0">
      <root>
        <mxCell id="WIyWlLk6GJQsqaUBKTNV-0" />
        <mxCell id="WIyWlLk6GJQsqaUBKTNV-1" parent="WIyWlLk6GJQsqaUBKTNV-0" />
        <mxCell id="zkfFHV4jXpPFQw0GAbJ--0" value="DomesticFlight " style="swimlane;fontStyle=2;align=center;verticalAlign=top;childLayout=stackLayout;horizontal=1;startSize=26;horizontalStack=0;resizeParent=1;resizeLast=0;collapsible=1;marginBottom=0;rounded=0;shadow=0;strokeWidth=1;" parent="WIyWlLk6GJQsqaUBKTNV-1" vertex="1">
          <mxGeometry x="776" y="175" width="160" height="138" as="geometry">
            <mxRectangle x="230" y="140" width="160" height="26" as="alternateBounds" />
          </mxGeometry>
        </mxCell>
        <mxCell id="zkfFHV4jXpPFQw0GAbJ--1" value="+ CBFrom" style="text;align=left;verticalAlign=top;spacingLeft=4;spacingRight=4;overflow=hidden;rotatable=0;points=[[0,0.5],[1,0.5]];portConstraint=eastwest;" parent="zkfFHV4jXpPFQw0GAbJ--0" vertex="1">
          <mxGeometry y="26" width="160" height="22" as="geometry" />
        </mxCell>
        <mxCell id="zkfFHV4jXpPFQw0GAbJ--2" value="+ CBTo " style="text;align=left;verticalAlign=top;spacingLeft=4;spacingRight=4;overflow=hidden;rotatable=0;points=[[0,0.5],[1,0.5]];portConstraint=eastwest;rounded=0;shadow=0;html=0;" parent="zkfFHV4jXpPFQw0GAbJ--0" vertex="1">
          <mxGeometry y="48" width="160" height="26" as="geometry" />
        </mxCell>
        <mxCell id="zkfFHV4jXpPFQw0GAbJ--3" value="+ TFBookingDate" style="text;align=left;verticalAlign=top;spacingLeft=4;spacingRight=4;overflow=hidden;rotatable=0;points=[[0,0.5],[1,0.5]];portConstraint=eastwest;rounded=0;shadow=0;html=0;" parent="zkfFHV4jXpPFQw0GAbJ--0" vertex="1">
          <mxGeometry y="74" width="160" height="26" as="geometry" />
        </mxCell>
        <mxCell id="bX2eOfO4Qz2bXXC0QLel-0" value="+ BFindFlight&amp;nbsp; &amp;nbsp; &amp;nbsp; &amp;nbsp; &amp;nbsp; &amp;nbsp; &amp;nbsp; &amp;nbsp; &amp;nbsp; &amp;nbsp; &amp;nbsp; &amp;nbsp;" style="text;html=1;align=center;verticalAlign=middle;whiteSpace=wrap;rounded=0;" parent="zkfFHV4jXpPFQw0GAbJ--0" vertex="1">
          <mxGeometry y="100" width="160" height="30" as="geometry" />
        </mxCell>
        <mxCell id="zkfFHV4jXpPFQw0GAbJ--6" value="button3 " style="swimlane;fontStyle=0;align=center;verticalAlign=top;childLayout=stackLayout;horizontal=1;startSize=26;horizontalStack=0;resizeParent=1;resizeLast=0;collapsible=1;marginBottom=0;rounded=0;shadow=0;strokeWidth=1;" parent="WIyWlLk6GJQsqaUBKTNV-1" vertex="1">
          <mxGeometry x="654" y="423" width="160" height="119" as="geometry">
            <mxRectangle x="130" y="380" width="160" height="26" as="alternateBounds" />
          </mxGeometry>
        </mxCell>
        <mxCell id="zkfFHV4jXpPFQw0GAbJ--7" value="+ type: DomesticFlight" style="text;align=left;verticalAlign=top;spacingLeft=4;spacingRight=4;overflow=hidden;rotatable=0;points=[[0,0.5],[1,0.5]];portConstraint=eastwest;" parent="zkfFHV4jXpPFQw0GAbJ--6" vertex="1">
          <mxGeometry y="26" width="160" height="26" as="geometry" />
        </mxCell>
        <mxCell id="zkfFHV4jXpPFQw0GAbJ--8" value="+ type1: LoginPage" style="text;align=left;verticalAlign=top;spacingLeft=4;spacingRight=4;overflow=hidden;rotatable=0;points=[[0,0.5],[1,0.5]];portConstraint=eastwest;rounded=0;shadow=0;html=0;" parent="zkfFHV4jXpPFQw0GAbJ--6" vertex="1">
          <mxGeometry y="52" width="160" height="26" as="geometry" />
        </mxCell>
        <mxCell id="zkfFHV4jXpPFQw0GAbJ--9" value="" style="line;html=1;strokeWidth=1;align=left;verticalAlign=middle;spacingTop=-1;spacingLeft=3;spacingRight=3;rotatable=0;labelPosition=right;points=[];portConstraint=eastwest;" parent="zkfFHV4jXpPFQw0GAbJ--6" vertex="1">
          <mxGeometry y="78" width="160" height="8" as="geometry" />
        </mxCell>
        <mxCell id="zkfFHV4jXpPFQw0GAbJ--10" value="+ actionPerformed()" style="text;align=left;verticalAlign=top;spacingLeft=4;spacingRight=4;overflow=hidden;rotatable=0;points=[[0,0.5],[1,0.5]];portConstraint=eastwest;fontStyle=4" parent="zkfFHV4jXpPFQw0GAbJ--6" vertex="1">
          <mxGeometry y="86" width="160" height="26" as="geometry" />
        </mxCell>
        <mxCell id="zkfFHV4jXpPFQw0GAbJ--13" value="Save2" style="swimlane;fontStyle=0;align=center;verticalAlign=top;childLayout=stackLayout;horizontal=1;startSize=26;horizontalStack=0;resizeParent=1;resizeLast=0;collapsible=1;marginBottom=0;rounded=0;shadow=0;strokeWidth=1;" parent="WIyWlLk6GJQsqaUBKTNV-1" vertex="1">
          <mxGeometry x="876" y="410" width="160" height="132" as="geometry">
            <mxRectangle x="340" y="380" width="170" height="26" as="alternateBounds" />
          </mxGeometry>
        </mxCell>
        <mxCell id="zkfFHV4jXpPFQw0GAbJ--14" value="+ sFrom&#xa;+ sTo&#xa;+ sClass&#xa;+ iAdult&#xa;+ iChildren&#xa;+ iPrice&#xa;" style="text;align=left;verticalAlign=top;spacingLeft=4;spacingRight=4;overflow=hidden;rotatable=0;points=[[0,0.5],[1,0.5]];portConstraint=eastwest;" parent="zkfFHV4jXpPFQw0GAbJ--13" vertex="1">
          <mxGeometry y="26" width="160" height="94" as="geometry" />
        </mxCell>
        <mxCell id="zkfFHV4jXpPFQw0GAbJ--17" value="LoginPage " style="swimlane;fontStyle=0;align=center;verticalAlign=top;childLayout=stackLayout;horizontal=1;startSize=26;horizontalStack=0;resizeParent=1;resizeLast=0;collapsible=1;marginBottom=0;rounded=0;shadow=0;strokeWidth=1;" parent="WIyWlLk6GJQsqaUBKTNV-1" vertex="1">
          <mxGeometry x="1066" y="215" width="160" height="85" as="geometry">
            <mxRectangle x="550" y="140" width="160" height="26" as="alternateBounds" />
          </mxGeometry>
        </mxCell>
        <mxCell id="zkfFHV4jXpPFQw0GAbJ--18" value="+ row1" style="text;align=left;verticalAlign=top;spacingLeft=4;spacingRight=4;overflow=hidden;rotatable=0;points=[[0,0.5],[1,0.5]];portConstraint=eastwest;" parent="zkfFHV4jXpPFQw0GAbJ--17" vertex="1">
          <mxGeometry y="26" width="160" height="26" as="geometry" />
        </mxCell>
        <mxCell id="zkfFHV4jXpPFQw0GAbJ--19" value="+ row3 " style="text;align=left;verticalAlign=top;spacingLeft=4;spacingRight=4;overflow=hidden;rotatable=0;points=[[0,0.5],[1,0.5]];portConstraint=eastwest;rounded=0;shadow=0;html=0;" parent="zkfFHV4jXpPFQw0GAbJ--17" vertex="1">
          <mxGeometry y="52" width="160" height="26" as="geometry" />
        </mxCell>
        <mxCell id="6tYrDux-ThKe55E2Nd6K-0" value=" PrintTicket1 " style="swimlane;whiteSpace=wrap;html=1;" parent="WIyWlLk6GJQsqaUBKTNV-1" vertex="1">
          <mxGeometry x="701" y="2413" width="200" height="630" as="geometry" />
        </mxCell>
        <mxCell id="6tYrDux-ThKe55E2Nd6K-1" value="+ LTitle: JLabel&amp;nbsp;&lt;div&gt;&lt;br&gt;&amp;nbsp; + LFrom: JLabel&amp;nbsp;&lt;/div&gt;&lt;div&gt;&lt;br&gt;&amp;nbsp;+ LTo: JLabel&amp;nbsp;&lt;/div&gt;&lt;div&gt;&lt;br&gt;&amp;nbsp;+ LClass: JLabel&amp;nbsp;&lt;br&gt;&amp;nbsp; &amp;nbsp; &amp;nbsp; &amp;nbsp; &amp;nbsp; &amp;nbsp; &amp;nbsp;&lt;/div&gt;&lt;div&gt;&amp;nbsp; &amp;nbsp; &amp;nbsp; &amp;nbsp; &amp;nbsp; &amp;nbsp; + LBookingDate: JLabe|&lt;br&gt;&lt;br&gt;&lt;/div&gt;&lt;div&gt;+ LPrice: JLabel&lt;br&gt;&lt;br&gt;&lt;/div&gt;&lt;div&gt;+ LTime: JLabel&amp;nbsp;&lt;br&gt;&amp;nbsp;&lt;/div&gt;&lt;div&gt;+ LAdult: JLabel&amp;nbsp;&lt;br&gt;&lt;br&gt;&lt;/div&gt;&lt;div&gt;&lt;span style=&quot;background-color: initial;&quot;&gt;&amp;nbsp; &amp;nbsp; &amp;nbsp; + LChildren: JLabel&amp;nbsp;&lt;/span&gt;&lt;br&gt;&lt;/div&gt;&lt;div&gt;&amp;nbsp;&lt;/div&gt;&lt;div&gt;&amp;nbsp; + LInfant: JLabel&amp;nbsp;&lt;br&gt;&lt;br&gt;&lt;/div&gt;&lt;div&gt;&amp;nbsp; &amp;nbsp; &amp;nbsp;+ LWishes: JLabel&amp;nbsp;&lt;br&gt;&amp;nbsp;&amp;nbsp;&lt;/div&gt;&lt;div&gt;&amp;nbsp; &amp;nbsp; &amp;nbsp; &amp;nbsp; &amp;nbsp;+ LTicketNo: JLabel&amp;nbsp;&lt;br&gt;&amp;nbsp; &amp;nbsp;&lt;/div&gt;&lt;div&gt;&amp;nbsp; &amp;nbsp; &amp;nbsp; &amp;nbsp; &amp;nbsp; &amp;nbsp;+ LBookedBy: JLabel&amp;nbsp;&lt;br&gt;&amp;nbsp;&lt;/div&gt;&lt;div&gt;&amp;nbsp; &amp;nbsp; &amp;nbsp; + LEmpty: JLabel&amp;nbsp;&lt;br&gt;&amp;nbsp;&amp;nbsp;&lt;/div&gt;&lt;div&gt;&amp;nbsp; &amp;nbsp; &amp;nbsp; &amp;nbsp;+ LDemo: JLabel&amp;nbsp;&lt;br&gt;&amp;nbsp;&lt;/div&gt;&lt;div&gt;&amp;nbsp; &amp;nbsp; &amp;nbsp; &amp;nbsp; &amp;nbsp;+ LFranklin: JLabel&amp;nbsp;&lt;br&gt;&amp;nbsp;&lt;/div&gt;&lt;div&gt;&amp;nbsp; + LRavi: JLabel&amp;nbsp;&lt;br&gt;&amp;nbsp; &amp;nbsp; &amp;nbsp; &amp;nbsp; &amp;nbsp;&lt;/div&gt;&lt;div&gt;&amp;nbsp; &amp;nbsp; &amp;nbsp; &amp;nbsp; + LMayuran: JLabel&amp;nbsp;&lt;br&gt;&amp;nbsp;&lt;/div&gt;&lt;div&gt;&amp;nbsp; &amp;nbsp;+ LSathya: JLabel  &lt;/div&gt;" style="text;html=1;align=center;verticalAlign=middle;resizable=0;points=[];autosize=1;strokeColor=none;fillColor=none;" parent="6tYrDux-ThKe55E2Nd6K-0" vertex="1">
          <mxGeometry x="-40" y="19" width="190" height="550" as="geometry" />
        </mxCell>
        <mxCell id="6tYrDux-ThKe55E2Nd6K-2" value="" style="line;html=1;strokeWidth=1;align=left;verticalAlign=middle;spacingTop=-1;spacingLeft=3;spacingRight=3;rotatable=0;labelPosition=right;points=[];portConstraint=eastwest;" parent="6tYrDux-ThKe55E2Nd6K-0" vertex="1">
          <mxGeometry y="580" width="200" height="8" as="geometry" />
        </mxCell>
        <mxCell id="6tYrDux-ThKe55E2Nd6K-3" value="&lt;u&gt;+ PrintTicket1(...)&lt;/u&gt;" style="text;html=1;align=center;verticalAlign=middle;resizable=0;points=[];autosize=1;strokeColor=none;fillColor=none;" parent="6tYrDux-ThKe55E2Nd6K-0" vertex="1">
          <mxGeometry y="588" width="110" height="30" as="geometry" />
        </mxCell>
        <mxCell id="6tYrDux-ThKe55E2Nd6K-5" value=" ExitListener " style="swimlane;whiteSpace=wrap;html=1;" parent="WIyWlLk6GJQsqaUBKTNV-1" vertex="1">
          <mxGeometry x="967" y="3140" width="200" height="69" as="geometry" />
        </mxCell>
        <mxCell id="6tYrDux-ThKe55E2Nd6K-14" value="&lt;u&gt; + windowClosing()&lt;/u&gt;" style="text;html=1;align=center;verticalAlign=middle;resizable=0;points=[];autosize=1;strokeColor=none;fillColor=none;" parent="6tYrDux-ThKe55E2Nd6K-5" vertex="1">
          <mxGeometry y="30" width="120" height="30" as="geometry" />
        </mxCell>
        <mxCell id="6tYrDux-ThKe55E2Nd6K-6" value=" WindowAdapter" style="swimlane;whiteSpace=wrap;html=1;" parent="WIyWlLk6GJQsqaUBKTNV-1" vertex="1">
          <mxGeometry x="406" y="3135" width="200" height="70" as="geometry" />
        </mxCell>
        <mxCell id="6tYrDux-ThKe55E2Nd6K-17" value="&lt;u&gt; + windowClosing()&lt;/u&gt;" style="text;html=1;align=center;verticalAlign=middle;resizable=0;points=[];autosize=1;strokeColor=none;fillColor=none;" parent="6tYrDux-ThKe55E2Nd6K-6" vertex="1">
          <mxGeometry y="25" width="120" height="30" as="geometry" />
        </mxCell>
        <mxCell id="6tYrDux-ThKe55E2Nd6K-9" value=" WindowEvent" style="swimlane;whiteSpace=wrap;html=1;" parent="WIyWlLk6GJQsqaUBKTNV-1" vertex="1">
          <mxGeometry x="703" y="3140" width="200" height="60" as="geometry" />
        </mxCell>
        <mxCell id="6tYrDux-ThKe55E2Nd6K-18" value="&lt;u&gt;+ getWindow() &lt;/u&gt;" style="text;html=1;align=center;verticalAlign=middle;resizable=0;points=[];autosize=1;strokeColor=none;fillColor=none;" parent="6tYrDux-ThKe55E2Nd6K-9" vertex="1">
          <mxGeometry x="2" y="23" width="100" height="30" as="geometry" />
        </mxCell>
        <mxCell id="vG10PeKNa69QSKeGUu7j-0" value="&lt;p dir=&quot;RTL&quot; class=&quot;MsoNormal&quot;&gt;&lt;span dir=&quot;LTR&quot;&gt;LoginPage&lt;/span&gt;&lt;/p&gt;" style="swimlane;fontStyle=1;align=center;verticalAlign=top;childLayout=stackLayout;horizontal=1;startSize=40;horizontalStack=0;resizeParent=1;resizeParentMax=0;resizeLast=0;collapsible=1;marginBottom=0;whiteSpace=wrap;html=1;" parent="WIyWlLk6GJQsqaUBKTNV-1" vertex="1">
          <mxGeometry x="724" y="1528" width="210" height="490" as="geometry" />
        </mxCell>
        <mxCell id="vG10PeKNa69QSKeGUu7j-1" value="&lt;p style=&quot;forced-color-adjust: none; color: rgb(0, 0, 0); font-family: Helvetica; font-size: 12px; font-style: normal; font-variant-ligatures: normal; font-variant-caps: normal; font-weight: 400; letter-spacing: normal; orphans: 2; text-align: left; text-indent: 0px; text-transform: none; widows: 2; word-spacing: 0px; -webkit-text-stroke-width: 0px; white-space: normal; background-color: rgb(251, 251, 251); text-decoration-thickness: initial; text-decoration-style: initial; text-decoration-color: initial;&quot; dir=&quot;RTL&quot; class=&quot;MsoNormal&quot;&gt;&lt;span style=&quot;forced-color-adjust: none;&quot; dir=&quot;LTR&quot;&gt;- c: Container&lt;/span&gt;&lt;/p&gt;&lt;p style=&quot;forced-color-adjust: none; color: rgb(0, 0, 0); font-family: Helvetica; font-size: 12px; font-style: normal; font-variant-ligatures: normal; font-variant-caps: normal; font-weight: 400; letter-spacing: normal; orphans: 2; text-align: left; text-indent: 0px; text-transform: none; widows: 2; word-spacing: 0px; -webkit-text-stroke-width: 0px; white-space: normal; background-color: rgb(251, 251, 251); text-decoration-thickness: initial; text-decoration-style: initial; text-decoration-color: initial;&quot; dir=&quot;RTL&quot; class=&quot;MsoNormal&quot;&gt;&lt;span style=&quot;forced-color-adjust: none;&quot; dir=&quot;LTR&quot;&gt;- PFlightTypes: JPanel&lt;/span&gt;&lt;/p&gt;&lt;p style=&quot;forced-color-adjust: none; color: rgb(0, 0, 0); font-family: Helvetica; font-size: 12px; font-style: normal; font-variant-ligatures: normal; font-variant-caps: normal; font-weight: 400; letter-spacing: normal; orphans: 2; text-align: left; text-indent: 0px; text-transform: none; widows: 2; word-spacing: 0px; -webkit-text-stroke-width: 0px; white-space: normal; background-color: rgb(251, 251, 251); text-decoration-thickness: initial; text-decoration-style: initial; text-decoration-color: initial;&quot; dir=&quot;RTL&quot; class=&quot;MsoNormal&quot;&gt;&lt;span style=&quot;forced-color-adjust: none;&quot; dir=&quot;LTR&quot;&gt;PLogin: JPanel&lt;/span&gt;&lt;span style=&quot;forced-color-adjust: none; font-family: Arial, sans-serif; background-color: initial;&quot;&gt;-&lt;/span&gt;&lt;/p&gt;&lt;p style=&quot;forced-color-adjust: none; color: rgb(0, 0, 0); font-family: Helvetica; font-size: 12px; font-style: normal; font-variant-ligatures: normal; font-variant-caps: normal; font-weight: 400; letter-spacing: normal; orphans: 2; text-align: left; text-indent: 0px; text-transform: none; widows: 2; word-spacing: 0px; -webkit-text-stroke-width: 0px; white-space: normal; background-color: rgb(251, 251, 251); text-decoration-thickness: initial; text-decoration-style: initial; text-decoration-color: initial;&quot; dir=&quot;RTL&quot; class=&quot;MsoNormal&quot;&gt;&lt;span style=&quot;forced-color-adjust: none;&quot; dir=&quot;LTR&quot;&gt;PFlightDetails: JPanel&lt;/span&gt;&lt;span style=&quot;forced-color-adjust: none; font-family: Arial, sans-serif; background-color: initial;&quot;&gt;-&lt;/span&gt;&lt;/p&gt;&lt;p style=&quot;forced-color-adjust: none; color: rgb(0, 0, 0); font-family: Helvetica; font-size: 12px; font-style: normal; font-variant-ligatures: normal; font-variant-caps: normal; font-weight: 400; letter-spacing: normal; orphans: 2; text-align: left; text-indent: 0px; text-transform: none; widows: 2; word-spacing: 0px; -webkit-text-stroke-width: 0px; white-space: normal; background-color: rgb(251, 251, 251); text-decoration-thickness: initial; text-decoration-style: initial; text-decoration-color: initial;&quot; dir=&quot;RTL&quot; class=&quot;MsoNormal&quot;&gt;&lt;span style=&quot;forced-color-adjust: none;&quot; dir=&quot;LTR&quot;&gt;bCheck: boolean&lt;/span&gt;&lt;span style=&quot;forced-color-adjust: none; font-family: Arial, sans-serif; background-color: initial;&quot;&gt;-&lt;/span&gt;&lt;/p&gt;&lt;p style=&quot;forced-color-adjust: none; color: rgb(0, 0, 0); font-family: Helvetica; font-size: 12px; font-style: normal; font-variant-ligatures: normal; font-variant-caps: normal; font-weight: 400; letter-spacing: normal; orphans: 2; text-align: left; text-indent: 0px; text-transform: none; widows: 2; word-spacing: 0px; -webkit-text-stroke-width: 0px; white-space: normal; background-color: rgb(251, 251, 251); text-decoration-thickness: initial; text-decoration-style: initial; text-decoration-color: initial;&quot; dir=&quot;RTL&quot; class=&quot;MsoNormal&quot;&gt;&lt;span style=&quot;forced-color-adjust: none;&quot; dir=&quot;LTR&quot;&gt;LDomesticFlight: JLabel&lt;/span&gt;&lt;span style=&quot;forced-color-adjust: none; font-family: Arial, sans-serif; background-color: initial;&quot;&gt;-&lt;/span&gt;&lt;/p&gt;&lt;p style=&quot;forced-color-adjust: none; color: rgb(0, 0, 0); font-family: Helvetica; font-size: 12px; font-style: normal; font-variant-ligatures: normal; font-variant-caps: normal; font-weight: 400; letter-spacing: normal; orphans: 2; text-align: left; text-indent: 0px; text-transform: none; widows: 2; word-spacing: 0px; -webkit-text-stroke-width: 0px; white-space: normal; background-color: rgb(251, 251, 251); text-decoration-thickness: initial; text-decoration-style: initial; text-decoration-color: initial;&quot; dir=&quot;RTL&quot; class=&quot;MsoNormal&quot;&gt;&lt;span style=&quot;forced-color-adjust: none;&quot; dir=&quot;LTR&quot;&gt;LInternationalFlight: JLabel&lt;/span&gt;&lt;span style=&quot;forced-color-adjust: none; font-family: Arial, sans-serif; background-color: initial;&quot;&gt;-&lt;/span&gt;&lt;/p&gt;&lt;p style=&quot;forced-color-adjust: none; color: rgb(0, 0, 0); font-family: Helvetica; font-size: 12px; font-style: normal; font-variant-ligatures: normal; font-variant-caps: normal; font-weight: 400; letter-spacing: normal; orphans: 2; text-align: left; text-indent: 0px; text-transform: none; widows: 2; word-spacing: 0px; -webkit-text-stroke-width: 0px; white-space: normal; background-color: rgb(251, 251, 251); text-decoration-thickness: initial; text-decoration-style: initial; text-decoration-color: initial;&quot; dir=&quot;RTL&quot; class=&quot;MsoNormal&quot;&gt;&lt;span style=&quot;forced-color-adjust: none;&quot; dir=&quot;LTR&quot;&gt;LUserName: JLabel&lt;/span&gt;&lt;span style=&quot;forced-color-adjust: none; font-family: Arial, sans-serif; background-color: initial;&quot;&gt;-&lt;/span&gt;&lt;/p&gt;&lt;p style=&quot;forced-color-adjust: none; color: rgb(0, 0, 0); font-family: Helvetica; font-size: 12px; font-style: normal; font-variant-ligatures: normal; font-variant-caps: normal; font-weight: 400; letter-spacing: normal; orphans: 2; text-align: left; text-indent: 0px; text-transform: none; widows: 2; word-spacing: 0px; -webkit-text-stroke-width: 0px; white-space: normal; background-color: rgb(251, 251, 251); text-decoration-thickness: initial; text-decoration-style: initial; text-decoration-color: initial;&quot; dir=&quot;RTL&quot; class=&quot;MsoNormal&quot;&gt;&lt;span style=&quot;forced-color-adjust: none;&quot; dir=&quot;LTR&quot;&gt;LPassword: JLabel&lt;/span&gt;&lt;span style=&quot;forced-color-adjust: none; font-family: Arial, sans-serif; background-color: initial;&quot;&gt;-&lt;/span&gt;&lt;/p&gt;&lt;p style=&quot;forced-color-adjust: none; color: rgb(0, 0, 0); font-family: Helvetica; font-size: 12px; font-style: normal; font-variant-ligatures: normal; font-variant-caps: normal; font-weight: 400; letter-spacing: normal; orphans: 2; text-align: left; text-indent: 0px; text-transform: none; widows: 2; word-spacing: 0px; -webkit-text-stroke-width: 0px; white-space: normal; background-color: rgb(251, 251, 251); text-decoration-thickness: initial; text-decoration-style: initial; text-decoration-color: initial;&quot; dir=&quot;RTL&quot; class=&quot;MsoNormal&quot;&gt;&lt;span style=&quot;forced-color-adjust: none;&quot; dir=&quot;LTR&quot;&gt;TFUserName: JTextField&lt;/span&gt;&lt;span style=&quot;forced-color-adjust: none; font-family: Arial, sans-serif; background-color: initial;&quot;&gt;-&lt;/span&gt;&lt;/p&gt;&lt;p style=&quot;forced-color-adjust: none; color: rgb(0, 0, 0); font-family: Helvetica; font-size: 12px; font-style: normal; font-variant-ligatures: normal; font-variant-caps: normal; font-weight: 400; letter-spacing: normal; orphans: 2; text-align: left; text-indent: 0px; text-transform: none; widows: 2; word-spacing: 0px; -webkit-text-stroke-width: 0px; white-space: normal; background-color: rgb(251, 251, 251); text-decoration-thickness: initial; text-decoration-style: initial; text-decoration-color: initial;&quot; dir=&quot;RTL&quot; class=&quot;MsoNormal&quot;&gt;&lt;span style=&quot;forced-color-adjust: none;&quot; dir=&quot;LTR&quot;&gt;TPPassword:JPasswordField&lt;/span&gt;&lt;span style=&quot;forced-color-adjust: none; font-family: Arial, sans-serif; background-color: initial;&quot;&gt;-&lt;/span&gt;&lt;/p&gt;&lt;p style=&quot;forced-color-adjust: none; color: rgb(0, 0, 0); font-family: Helvetica; font-size: 12px; font-style: normal; font-variant-ligatures: normal; font-variant-caps: normal; font-weight: 400; letter-spacing: normal; orphans: 2; text-align: left; text-indent: 0px; text-transform: none; widows: 2; word-spacing: 0px; -webkit-text-stroke-width: 0px; white-space: normal; background-color: rgb(251, 251, 251); text-decoration-thickness: initial; text-decoration-style: initial; text-decoration-color: initial;&quot; dir=&quot;RTL&quot; class=&quot;MsoNormal&quot;&gt;&lt;span style=&quot;forced-color-adjust: none;&quot; dir=&quot;LTR&quot;&gt;- BLogin: JButton&lt;/span&gt;&lt;/p&gt;&lt;div&gt;&lt;br/&gt;&lt;/div&gt;" style="text;strokeColor=none;fillColor=none;align=left;verticalAlign=top;spacingLeft=4;spacingRight=4;overflow=hidden;rotatable=0;points=[[0,0.5],[1,0.5]];portConstraint=eastwest;whiteSpace=wrap;html=1;" parent="vG10PeKNa69QSKeGUu7j-0" vertex="1">
          <mxGeometry y="40" width="210" height="340" as="geometry" />
        </mxCell>
        <mxCell id="vG10PeKNa69QSKeGUu7j-2" value="" style="line;strokeWidth=1;fillColor=none;align=left;verticalAlign=middle;spacingTop=-1;spacingLeft=3;spacingRight=3;rotatable=0;labelPosition=right;points=[];portConstraint=eastwest;strokeColor=inherit;" parent="vG10PeKNa69QSKeGUu7j-0" vertex="1">
          <mxGeometry y="380" width="210" height="10" as="geometry" />
        </mxCell>
        <mxCell id="vG10PeKNa69QSKeGUu7j-3" value="&lt;p dir=&quot;RTL&quot; class=&quot;MsoNormal&quot;&gt;&lt;span dir=&quot;LTR&quot;&gt;+ LoginPage()&lt;/span&gt;&lt;/p&gt;&lt;p dir=&quot;RTL&quot; class=&quot;MsoNormal&quot;&gt;&lt;span style=&quot;background-color: initial;&quot; dir=&quot;LTR&quot;&gt;+ main(String[]): void&lt;/span&gt;&lt;/p&gt;&lt;p dir=&quot;RTL&quot; class=&quot;MsoNormal&quot;&gt;&amp;nbsp;actionPerformed(ActionEvent): void+&lt;/p&gt;" style="text;strokeColor=none;fillColor=none;align=left;verticalAlign=top;spacingLeft=4;spacingRight=4;overflow=hidden;rotatable=0;points=[[0,0.5],[1,0.5]];portConstraint=eastwest;whiteSpace=wrap;html=1;" parent="vG10PeKNa69QSKeGUu7j-0" vertex="1">
          <mxGeometry y="390" width="210" height="100" as="geometry" />
        </mxCell>
        <mxCell id="vG10PeKNa69QSKeGUu7j-12" value="buttonl&amp;nbsp;&amp;nbsp;" style="swimlane;fontStyle=1;align=center;verticalAlign=top;childLayout=stackLayout;horizontal=1;startSize=26;horizontalStack=0;resizeParent=1;resizeParentMax=0;resizeLast=0;collapsible=1;marginBottom=0;whiteSpace=wrap;html=1;" parent="WIyWlLk6GJQsqaUBKTNV-1" vertex="1">
          <mxGeometry x="325" y="2138.5" width="206" height="195" as="geometry" />
        </mxCell>
        <mxCell id="vG10PeKNa69QSKeGUu7j-13" value="&lt;div&gt;- type: LoginPage&lt;/div&gt;&lt;div&gt;- cCheck: char[]&lt;/div&gt;&lt;div&gt;- cPassword: char[]&lt;/div&gt;&lt;div&gt;- sCheck: String&lt;/div&gt;&lt;div&gt;- sCheck1: String&lt;/div&gt;" style="text;strokeColor=none;fillColor=none;align=left;verticalAlign=top;spacingLeft=4;spacingRight=4;overflow=hidden;rotatable=0;points=[[0,0.5],[1,0.5]];portConstraint=eastwest;whiteSpace=wrap;html=1;" parent="vG10PeKNa69QSKeGUu7j-12" vertex="1">
          <mxGeometry y="26" width="206" height="80" as="geometry" />
        </mxCell>
        <mxCell id="vG10PeKNa69QSKeGUu7j-14" value="" style="line;strokeWidth=1;fillColor=none;align=left;verticalAlign=middle;spacingTop=-1;spacingLeft=3;spacingRight=3;rotatable=0;labelPosition=right;points=[];portConstraint=eastwest;strokeColor=inherit;" parent="vG10PeKNa69QSKeGUu7j-12" vertex="1">
          <mxGeometry y="106" width="206" height="8" as="geometry" />
        </mxCell>
        <mxCell id="vG10PeKNa69QSKeGUu7j-15" value="&lt;div&gt;+ button1(LoginPage)&lt;/div&gt;&lt;div&gt;&lt;br&gt;&lt;/div&gt;&lt;div&gt;+actionPerformed(ActionEvent): void&lt;/div&gt;&lt;div&gt;&lt;br&gt;&lt;/div&gt;&lt;div&gt;+ check(): boolean&lt;/div&gt;" style="text;strokeColor=none;fillColor=none;align=left;verticalAlign=top;spacingLeft=4;spacingRight=4;overflow=hidden;rotatable=0;points=[[0,0.5],[1,0.5]];portConstraint=eastwest;whiteSpace=wrap;html=1;" parent="vG10PeKNa69QSKeGUu7j-12" vertex="1">
          <mxGeometry y="114" width="206" height="81" as="geometry" />
        </mxCell>
        <mxCell id="vG10PeKNa69QSKeGUu7j-16" value="mouse1" style="swimlane;fontStyle=1;align=center;verticalAlign=top;childLayout=stackLayout;horizontal=1;startSize=26;horizontalStack=0;resizeParent=1;resizeParentMax=0;resizeLast=0;collapsible=1;marginBottom=0;whiteSpace=wrap;html=1;" parent="WIyWlLk6GJQsqaUBKTNV-1" vertex="1">
          <mxGeometry x="718" y="2146" width="210" height="162" as="geometry" />
        </mxCell>
        <mxCell id="vG10PeKNa69QSKeGUu7j-17" value="&lt;div&gt;- type: LoginPage&lt;/div&gt;&lt;div&gt;- bCheck: boolean&lt;/div&gt;" style="text;strokeColor=none;fillColor=none;align=left;verticalAlign=top;spacingLeft=4;spacingRight=4;overflow=hidden;rotatable=0;points=[[0,0.5],[1,0.5]];portConstraint=eastwest;whiteSpace=wrap;html=1;" parent="vG10PeKNa69QSKeGUu7j-16" vertex="1">
          <mxGeometry y="26" width="210" height="54" as="geometry" />
        </mxCell>
        <mxCell id="vG10PeKNa69QSKeGUu7j-18" value="" style="line;strokeWidth=1;fillColor=none;align=left;verticalAlign=middle;spacingTop=-1;spacingLeft=3;spacingRight=3;rotatable=0;labelPosition=right;points=[];portConstraint=eastwest;strokeColor=inherit;" parent="vG10PeKNa69QSKeGUu7j-16" vertex="1">
          <mxGeometry y="80" width="210" height="8" as="geometry" />
        </mxCell>
        <mxCell id="vG10PeKNa69QSKeGUu7j-19" value="&lt;div&gt;+ mouseEntered(MouseEvent): void&lt;/div&gt;&lt;div&gt;&lt;br&gt;&lt;/div&gt;&lt;div&gt;+ mouseClicked(MouseEvent): void&lt;/div&gt;" style="text;strokeColor=none;fillColor=none;align=left;verticalAlign=top;spacingLeft=4;spacingRight=4;overflow=hidden;rotatable=0;points=[[0,0.5],[1,0.5]];portConstraint=eastwest;whiteSpace=wrap;html=1;" parent="vG10PeKNa69QSKeGUu7j-16" vertex="1">
          <mxGeometry y="88" width="210" height="74" as="geometry" />
        </mxCell>
        <mxCell id="vG10PeKNa69QSKeGUu7j-22" value="mouse2" style="swimlane;fontStyle=1;align=center;verticalAlign=top;childLayout=stackLayout;horizontal=1;startSize=26;horizontalStack=0;resizeParent=1;resizeParentMax=0;resizeLast=0;collapsible=1;marginBottom=0;whiteSpace=wrap;html=1;" parent="WIyWlLk6GJQsqaUBKTNV-1" vertex="1">
          <mxGeometry x="1011" y="2157" width="230" height="158" as="geometry" />
        </mxCell>
        <mxCell id="vG10PeKNa69QSKeGUu7j-23" value="&lt;div&gt;- type: LoginPage&lt;/div&gt;&lt;div&gt;- bCheck: boolean&lt;/div&gt;&lt;div&gt;&lt;br&gt;&lt;/div&gt;" style="text;strokeColor=none;fillColor=none;align=left;verticalAlign=top;spacingLeft=4;spacingRight=4;overflow=hidden;rotatable=0;points=[[0,0.5],[1,0.5]];portConstraint=eastwest;whiteSpace=wrap;html=1;" parent="vG10PeKNa69QSKeGUu7j-22" vertex="1">
          <mxGeometry y="26" width="230" height="54" as="geometry" />
        </mxCell>
        <mxCell id="vG10PeKNa69QSKeGUu7j-24" value="" style="line;strokeWidth=1;fillColor=none;align=left;verticalAlign=middle;spacingTop=-1;spacingLeft=3;spacingRight=3;rotatable=0;labelPosition=right;points=[];portConstraint=eastwest;strokeColor=inherit;" parent="vG10PeKNa69QSKeGUu7j-22" vertex="1">
          <mxGeometry y="80" width="230" height="8" as="geometry" />
        </mxCell>
        <mxCell id="vG10PeKNa69QSKeGUu7j-25" value="&lt;div&gt;+ mouseEntered(MouseEvent): void&lt;/div&gt;&lt;div&gt;&lt;br&gt;&lt;/div&gt;&lt;div&gt;+ mouseClicked(MouseEvent): void&lt;/div&gt;" style="text;strokeColor=none;fillColor=none;align=left;verticalAlign=top;spacingLeft=4;spacingRight=4;overflow=hidden;rotatable=0;points=[[0,0.5],[1,0.5]];portConstraint=eastwest;whiteSpace=wrap;html=1;" parent="vG10PeKNa69QSKeGUu7j-22" vertex="1">
          <mxGeometry y="88" width="230" height="70" as="geometry" />
        </mxCell>
        <mxCell id="vG10PeKNa69QSKeGUu7j-26" value="mouse3" style="swimlane;fontStyle=1;align=center;verticalAlign=top;childLayout=stackLayout;horizontal=1;startSize=26;horizontalStack=0;resizeParent=1;resizeParentMax=0;resizeLast=0;collapsible=1;marginBottom=0;whiteSpace=wrap;html=1;" parent="WIyWlLk6GJQsqaUBKTNV-1" vertex="1">
          <mxGeometry x="1322" y="2145" width="240" height="170" as="geometry" />
        </mxCell>
        <mxCell id="vG10PeKNa69QSKeGUu7j-27" value="&lt;div&gt;- type: LoginPage&lt;/div&gt;&lt;div&gt;- bCheck: boolean&lt;/div&gt;&lt;div&gt;&lt;br&gt;&lt;/div&gt;" style="text;strokeColor=none;fillColor=none;align=left;verticalAlign=top;spacingLeft=4;spacingRight=4;overflow=hidden;rotatable=0;points=[[0,0.5],[1,0.5]];portConstraint=eastwest;whiteSpace=wrap;html=1;" parent="vG10PeKNa69QSKeGUu7j-26" vertex="1">
          <mxGeometry y="26" width="240" height="54" as="geometry" />
        </mxCell>
        <mxCell id="vG10PeKNa69QSKeGUu7j-28" value="" style="line;strokeWidth=1;fillColor=none;align=left;verticalAlign=middle;spacingTop=-1;spacingLeft=3;spacingRight=3;rotatable=0;labelPosition=right;points=[];portConstraint=eastwest;strokeColor=inherit;" parent="vG10PeKNa69QSKeGUu7j-26" vertex="1">
          <mxGeometry y="80" width="240" height="8" as="geometry" />
        </mxCell>
        <mxCell id="vG10PeKNa69QSKeGUu7j-29" value="&lt;div&gt;+ mouseEntered(MouseEvent): void&lt;/div&gt;&lt;div&gt;&lt;br&gt;&lt;/div&gt;&lt;div&gt;+ mouseClicked(MouseEvent): void&lt;/div&gt;" style="text;strokeColor=none;fillColor=none;align=left;verticalAlign=top;spacingLeft=4;spacingRight=4;overflow=hidden;rotatable=0;points=[[0,0.5],[1,0.5]];portConstraint=eastwest;whiteSpace=wrap;html=1;" parent="vG10PeKNa69QSKeGUu7j-26" vertex="1">
          <mxGeometry y="88" width="240" height="82" as="geometry" />
        </mxCell>
        <mxCell id="AbQrHhsXWPX1a7TPLVwt-4" value="&lt;p dir=&quot;RTL&quot; class=&quot;MsoNormal&quot;&gt;&amp;nbsp; InternationalFlight&lt;br&gt;&lt;/p&gt;" style="swimlane;fontStyle=1;align=center;verticalAlign=top;childLayout=stackLayout;horizontal=1;startSize=40;horizontalStack=0;resizeParent=1;resizeParentMax=0;resizeLast=0;collapsible=1;marginBottom=0;whiteSpace=wrap;html=1;" parent="WIyWlLk6GJQsqaUBKTNV-1" vertex="1">
          <mxGeometry x="698" y="748" width="210" height="432" as="geometry" />
        </mxCell>
        <mxCell id="AbQrHhsXWPX1a7TPLVwt-5" value="- PPanel2: JPanel&lt;div&gt;- CBTo: JComboBox&lt;/div&gt;&lt;div&gt;- CBClass: JComboBox&amp;nbsp;&lt;br&gt;&lt;/div&gt;&lt;div&gt;- CBAdult: JComboBox&amp;nbsp;&lt;br&gt;&lt;/div&gt;&lt;div&gt;&amp;nbsp;- CBChildren: JComboBox&lt;br&gt;&lt;/div&gt;&lt;div&gt;- CBInfant: JComboBox&lt;br&gt;&lt;/div&gt;&lt;div&gt;- LFrom: JLabel&lt;/div&gt;&lt;div&gt;- LTo: JLabel&lt;/div&gt;&lt;div&gt;&amp;nbsp;- LBookingDate: JLabel&amp;nbsp;&amp;nbsp;&lt;/div&gt;&lt;div&gt;- LClass: JLabel&amp;nbsp;&lt;/div&gt;&lt;div&gt;- LAdult: JLabel&amp;nbsp;&lt;/div&gt;&lt;div&gt;&amp;nbsp;- LChildren: JLabel&amp;nbsp;&lt;br&gt;&lt;/div&gt;&lt;div&gt;- LInfant: JLabel&amp;nbsp;&lt;br&gt;&lt;/div&gt;&lt;div&gt;- LBookingDetails: JLabel&amp;nbsp;&lt;br&gt;&lt;/div&gt;&lt;div&gt;- LPassengerDetails: JLabel&lt;br&gt;&lt;/div&gt;&lt;div&gt;&amp;nbsp;- LDate: JLabel&lt;br&gt;&lt;/div&gt;&lt;div&gt;- TFBookingDate: JTextField&lt;br&gt;&lt;/div&gt;&lt;div&gt;- BFindFlight: JButton&amp;nbsp;&lt;br&gt;&lt;/div&gt;&lt;div&gt;- type1: LoginPage&lt;br&gt;&lt;/div&gt;&lt;div&gt;&amp;nbsp;- PPanel1: JPanel&lt;br&gt;&lt;/div&gt;&lt;div&gt;- PPanel2: JPanel&amp;nbsp;&lt;br&gt;&lt;/div&gt;&lt;div&gt;&lt;br&gt;&lt;/div&gt;" style="text;strokeColor=none;fillColor=none;align=left;verticalAlign=top;spacingLeft=4;spacingRight=4;overflow=hidden;rotatable=0;points=[[0,0.5],[1,0.5]];portConstraint=eastwest;whiteSpace=wrap;html=1;" parent="AbQrHhsXWPX1a7TPLVwt-4" vertex="1">
          <mxGeometry y="40" width="210" height="317" as="geometry" />
        </mxCell>
        <mxCell id="AbQrHhsXWPX1a7TPLVwt-6" value="" style="line;strokeWidth=1;fillColor=none;align=left;verticalAlign=middle;spacingTop=-1;spacingLeft=3;spacingRight=3;rotatable=0;labelPosition=right;points=[];portConstraint=eastwest;strokeColor=inherit;" parent="AbQrHhsXWPX1a7TPLVwt-4" vertex="1">
          <mxGeometry y="357" width="210" height="10" as="geometry" />
        </mxCell>
        <mxCell id="AbQrHhsXWPX1a7TPLVwt-7" value="&lt;p dir=&quot;RTL&quot; class=&quot;MsoNormal&quot;&gt;main(args: String[]): void+&amp;nbsp;&lt;br&gt;&lt;/p&gt;&lt;p dir=&quot;RTL&quot; class=&quot;MsoNormal&quot;&gt;LoginPage+&lt;/p&gt;" style="text;strokeColor=none;fillColor=none;align=left;verticalAlign=top;spacingLeft=4;spacingRight=4;overflow=hidden;rotatable=0;points=[[0,0.5],[1,0.5]];portConstraint=eastwest;whiteSpace=wrap;html=1;" parent="AbQrHhsXWPX1a7TPLVwt-4" vertex="1">
          <mxGeometry y="367" width="210" height="65" as="geometry" />
        </mxCell>
        <mxCell id="AbQrHhsXWPX1a7TPLVwt-8" value="&amp;nbsp; button2&amp;nbsp;&amp;nbsp;" style="swimlane;fontStyle=1;align=center;verticalAlign=top;childLayout=stackLayout;horizontal=1;startSize=26;horizontalStack=0;resizeParent=1;resizeParentMax=0;resizeLast=0;collapsible=1;marginBottom=0;whiteSpace=wrap;html=1;" parent="WIyWlLk6GJQsqaUBKTNV-1" vertex="1">
          <mxGeometry x="338" y="1285" width="210" height="180" as="geometry" />
        </mxCell>
        <mxCell id="AbQrHhsXWPX1a7TPLVwt-9" value="- type: InternationalFlight&lt;div&gt;- type1: LoginPage&amp;nbsp;&lt;br&gt;&lt;/div&gt;" style="text;strokeColor=none;fillColor=none;align=left;verticalAlign=top;spacingLeft=4;spacingRight=4;overflow=hidden;rotatable=0;points=[[0,0.5],[1,0.5]];portConstraint=eastwest;whiteSpace=wrap;html=1;" parent="AbQrHhsXWPX1a7TPLVwt-8" vertex="1">
          <mxGeometry y="26" width="210" height="54" as="geometry" />
        </mxCell>
        <mxCell id="AbQrHhsXWPX1a7TPLVwt-10" value="" style="line;strokeWidth=1;fillColor=none;align=left;verticalAlign=middle;spacingTop=-1;spacingLeft=3;spacingRight=3;rotatable=0;labelPosition=right;points=[];portConstraint=eastwest;strokeColor=inherit;" parent="AbQrHhsXWPX1a7TPLVwt-8" vertex="1">
          <mxGeometry y="80" width="210" height="8" as="geometry" />
        </mxCell>
        <mxCell id="AbQrHhsXWPX1a7TPLVwt-11" value="+ button2(type: InternationalFlight, type1: LoginPage)&lt;div&gt;&lt;br&gt;&lt;/div&gt;&lt;div&gt;+ actionPerformed(e: ActionEvent): void&lt;br&gt;&lt;/div&gt;" style="text;strokeColor=none;fillColor=none;align=left;verticalAlign=top;spacingLeft=4;spacingRight=4;overflow=hidden;rotatable=0;points=[[0,0.5],[1,0.5]];portConstraint=eastwest;whiteSpace=wrap;html=1;" parent="AbQrHhsXWPX1a7TPLVwt-8" vertex="1">
          <mxGeometry y="88" width="210" height="92" as="geometry" />
        </mxCell>
        <mxCell id="AbQrHhsXWPX1a7TPLVwt-12" value="Save1&amp;nbsp;" style="swimlane;fontStyle=1;align=center;verticalAlign=top;childLayout=stackLayout;horizontal=1;startSize=26;horizontalStack=0;resizeParent=1;resizeParentMax=0;resizeLast=0;collapsible=1;marginBottom=0;whiteSpace=wrap;html=1;" parent="WIyWlLk6GJQsqaUBKTNV-1" vertex="1">
          <mxGeometry x="1070" y="1265" width="210" height="316" as="geometry" />
        </mxCell>
        <mxCell id="AbQrHhsXWPX1a7TPLVwt-13" value="- sFrom: String&lt;div&gt;- sTo: String&amp;nbsp;&lt;br&gt;&lt;/div&gt;&lt;div&gt;- sClass: String&lt;br&gt;&lt;/div&gt;&lt;div&gt;- sBookingDate: String&lt;br&gt;&lt;/div&gt;&lt;div&gt;&amp;nbsp;- sTime: String&lt;br&gt;&lt;/div&gt;&lt;div&gt;- iPrice: Integer&lt;br&gt;&lt;/div&gt;&lt;div&gt;&amp;nbsp;- iAdult: Integer&amp;nbsp;&lt;br&gt;&lt;/div&gt;&lt;div&gt;- iChildren: Integer&lt;br&gt;&lt;/div&gt;&lt;div&gt;&amp;nbsp;- iInfant: Integer&lt;br&gt;&lt;/div&gt;&lt;div&gt;&lt;br&gt;&lt;/div&gt;&lt;div&gt;&lt;br&gt;&lt;/div&gt;" style="text;strokeColor=none;fillColor=none;align=left;verticalAlign=top;spacingLeft=4;spacingRight=4;overflow=hidden;rotatable=0;points=[[0,0.5],[1,0.5]];portConstraint=eastwest;whiteSpace=wrap;html=1;" parent="AbQrHhsXWPX1a7TPLVwt-12" vertex="1">
          <mxGeometry y="26" width="210" height="140" as="geometry" />
        </mxCell>
        <mxCell id="AbQrHhsXWPX1a7TPLVwt-14" value="" style="line;strokeWidth=1;fillColor=none;align=left;verticalAlign=middle;spacingTop=-1;spacingLeft=3;spacingRight=3;rotatable=0;labelPosition=right;points=[];portConstraint=eastwest;strokeColor=inherit;" parent="AbQrHhsXWPX1a7TPLVwt-12" vertex="1">
          <mxGeometry y="166" width="210" height="8" as="geometry" />
        </mxCell>
        <mxCell id="AbQrHhsXWPX1a7TPLVwt-15" value="+ Save1(sFrom: String, sTo: String, sClass: String, iAdult: Integer, iChildren: Integer, iInfant: Integer, sBookingDate: String, iPrice: Integer, sTime: String)&lt;div&gt;&lt;br&gt;&lt;/div&gt;&lt;div&gt;+ toString(): String&lt;br&gt;&lt;div&gt;&lt;br&gt;&lt;/div&gt;&lt;div&gt;&lt;br&gt;&lt;/div&gt;&lt;/div&gt;" style="text;strokeColor=none;fillColor=none;align=left;verticalAlign=top;spacingLeft=4;spacingRight=4;overflow=hidden;rotatable=0;points=[[0,0.5],[1,0.5]];portConstraint=eastwest;whiteSpace=wrap;html=1;" parent="AbQrHhsXWPX1a7TPLVwt-12" vertex="1">
          <mxGeometry y="174" width="210" height="142" as="geometry" />
        </mxCell>
        <mxCell id="b3wnrEEtcO3FUc5111y_-5" value="" style="endArrow=block;endSize=10;endFill=0;shadow=0;strokeWidth=1;rounded=0;curved=0;edgeStyle=elbowEdgeStyle;elbow=vertical;" edge="1" parent="WIyWlLk6GJQsqaUBKTNV-1">
          <mxGeometry width="160" relative="1" as="geometry">
            <mxPoint x="738" y="419" as="sourcePoint" />
            <mxPoint x="838" y="317" as="targetPoint" />
            <Array as="points">
              <mxPoint x="833" y="368" />
            </Array>
          </mxGeometry>
        </mxCell>
        <mxCell id="b3wnrEEtcO3FUc5111y_-7" value="" style="endArrow=block;endSize=10;endFill=0;shadow=0;strokeWidth=1;rounded=0;curved=0;edgeStyle=elbowEdgeStyle;elbow=vertical;" edge="1" parent="WIyWlLk6GJQsqaUBKTNV-1">
          <mxGeometry width="160" relative="1" as="geometry">
            <mxPoint x="953" y="410" as="sourcePoint" />
            <mxPoint x="839" y="318" as="targetPoint" />
          </mxGeometry>
        </mxCell>
        <mxCell id="b3wnrEEtcO3FUc5111y_-8" value="" style="endArrow=block;endSize=10;endFill=0;shadow=0;strokeWidth=1;rounded=0;curved=0;edgeStyle=elbowEdgeStyle;elbow=vertical;exitX=0.5;exitY=0;exitDx=0;exitDy=0;entryX=0.487;entryY=1.027;entryDx=0;entryDy=0;entryPerimeter=0;" edge="1" parent="WIyWlLk6GJQsqaUBKTNV-1" source="AbQrHhsXWPX1a7TPLVwt-12" target="AbQrHhsXWPX1a7TPLVwt-7">
          <mxGeometry width="160" relative="1" as="geometry">
            <mxPoint x="1110" y="1263" as="sourcePoint" />
            <mxPoint x="814" y="1180" as="targetPoint" />
            <Array as="points">
              <mxPoint x="1034" y="1227" />
            </Array>
          </mxGeometry>
        </mxCell>
        <mxCell id="b3wnrEEtcO3FUc5111y_-9" value="" style="endArrow=block;endSize=10;endFill=0;shadow=0;strokeWidth=1;rounded=0;curved=0;edgeStyle=elbowEdgeStyle;elbow=vertical;entryX=0.486;entryY=1.008;entryDx=0;entryDy=0;entryPerimeter=0;" edge="1" parent="WIyWlLk6GJQsqaUBKTNV-1" target="AbQrHhsXWPX1a7TPLVwt-7">
          <mxGeometry width="160" relative="1" as="geometry">
            <mxPoint x="441" y="1276" as="sourcePoint" />
            <mxPoint x="801" y="1184" as="targetPoint" />
            <Array as="points">
              <mxPoint x="379" y="1260" />
            </Array>
          </mxGeometry>
        </mxCell>
        <mxCell id="b3wnrEEtcO3FUc5111y_-10" value="" style="endArrow=block;endSize=10;endFill=0;shadow=0;strokeWidth=1;rounded=0;curved=0;edgeStyle=elbowEdgeStyle;elbow=vertical;exitX=0.474;exitY=-0.011;exitDx=0;exitDy=0;exitPerimeter=0;" edge="1" parent="WIyWlLk6GJQsqaUBKTNV-1" source="vG10PeKNa69QSKeGUu7j-12">
          <mxGeometry width="160" relative="1" as="geometry">
            <mxPoint x="424" y="2126" as="sourcePoint" />
            <mxPoint x="823" y="2018" as="targetPoint" />
            <Array as="points">
              <mxPoint x="620" y="2107" />
            </Array>
          </mxGeometry>
        </mxCell>
        <mxCell id="b3wnrEEtcO3FUc5111y_-12" value="" style="endArrow=block;endSize=10;endFill=0;shadow=0;strokeWidth=1;rounded=0;curved=0;edgeStyle=elbowEdgeStyle;elbow=vertical;" edge="1" parent="WIyWlLk6GJQsqaUBKTNV-1">
          <mxGeometry width="160" relative="1" as="geometry">
            <mxPoint x="822.82" y="2144" as="sourcePoint" />
            <mxPoint x="822.82" y="2018" as="targetPoint" />
            <Array as="points">
              <mxPoint x="807.82" y="2116" />
            </Array>
          </mxGeometry>
        </mxCell>
        <mxCell id="b3wnrEEtcO3FUc5111y_-13" value="" style="endArrow=block;endSize=10;endFill=0;shadow=0;strokeWidth=1;rounded=0;curved=0;edgeStyle=elbowEdgeStyle;elbow=vertical;" edge="1" parent="WIyWlLk6GJQsqaUBKTNV-1">
          <mxGeometry width="160" relative="1" as="geometry">
            <mxPoint x="1129" y="2154" as="sourcePoint" />
            <mxPoint x="823" y="2018" as="targetPoint" />
            <Array as="points">
              <mxPoint x="1016" y="2101" />
            </Array>
          </mxGeometry>
        </mxCell>
        <mxCell id="b3wnrEEtcO3FUc5111y_-14" value="" style="endArrow=block;endSize=10;endFill=0;shadow=0;strokeWidth=1;rounded=0;curved=0;edgeStyle=elbowEdgeStyle;elbow=vertical;" edge="1" parent="WIyWlLk6GJQsqaUBKTNV-1">
          <mxGeometry width="160" relative="1" as="geometry">
            <mxPoint x="1441" y="2144" as="sourcePoint" />
            <mxPoint x="823" y="2018" as="targetPoint" />
            <Array as="points">
              <mxPoint x="1160" y="2100" />
            </Array>
          </mxGeometry>
        </mxCell>
        <mxCell id="b3wnrEEtcO3FUc5111y_-15" value="" style="endArrow=block;endSize=10;endFill=0;shadow=0;strokeWidth=1;rounded=0;curved=0;edgeStyle=elbowEdgeStyle;elbow=vertical;exitX=0.518;exitY=0.005;exitDx=0;exitDy=0;exitPerimeter=0;" edge="1" parent="WIyWlLk6GJQsqaUBKTNV-1" source="6tYrDux-ThKe55E2Nd6K-5">
          <mxGeometry width="160" relative="1" as="geometry">
            <mxPoint x="1072" y="3133" as="sourcePoint" />
            <mxPoint x="800" y="3045" as="targetPoint" />
            <Array as="points">
              <mxPoint x="1063" y="3088" />
            </Array>
          </mxGeometry>
        </mxCell>
        <mxCell id="b3wnrEEtcO3FUc5111y_-16" value="" style="endArrow=block;endSize=10;endFill=0;shadow=0;strokeWidth=1;rounded=0;curved=0;edgeStyle=elbowEdgeStyle;elbow=vertical;" edge="1" parent="WIyWlLk6GJQsqaUBKTNV-1">
          <mxGeometry width="160" relative="1" as="geometry">
            <mxPoint x="800" y="3140" as="sourcePoint" />
            <mxPoint x="800" y="3045" as="targetPoint" />
            <Array as="points">
              <mxPoint x="1066" y="3084" />
            </Array>
          </mxGeometry>
        </mxCell>
        <mxCell id="b3wnrEEtcO3FUc5111y_-17" value="" style="endArrow=block;endSize=10;endFill=0;shadow=0;strokeWidth=1;rounded=0;curved=0;edgeStyle=elbowEdgeStyle;elbow=vertical;" edge="1" parent="WIyWlLk6GJQsqaUBKTNV-1">
          <mxGeometry width="160" relative="1" as="geometry">
            <mxPoint x="514" y="3131" as="sourcePoint" />
            <mxPoint x="800" y="3044" as="targetPoint" />
            <Array as="points">
              <mxPoint x="602" y="3088" />
            </Array>
          </mxGeometry>
        </mxCell>
        <mxCell id="b3wnrEEtcO3FUc5111y_-18" value="" style="endArrow=block;endSize=10;endFill=0;shadow=0;strokeWidth=1;rounded=0;curved=0;edgeStyle=elbowEdgeStyle;elbow=vertical;exitX=0.999;exitY=0.237;exitDx=0;exitDy=0;exitPerimeter=0;" edge="1" parent="WIyWlLk6GJQsqaUBKTNV-1" source="zkfFHV4jXpPFQw0GAbJ--3" target="zkfFHV4jXpPFQw0GAbJ--18">
          <mxGeometry width="160" relative="1" as="geometry">
            <mxPoint x="940" y="256" as="sourcePoint" />
            <mxPoint x="1015" y="340.4651162790698" as="targetPoint" />
            <Array as="points">
              <mxPoint x="942" y="255" />
            </Array>
          </mxGeometry>
        </mxCell>
      </root>
    </mxGraphModel>
  </diagram>
</mxfile>
